<svg width="892" height="415" viewBox="0 0 892 415" fill="none" xmlns="http://www.w3.org/2000/svg">
<path d="M0.289063 101.375C0.289063 61.0582 32.9723 28.375 73.2891 28.375L73.2891 413.375C32.9723 413.375 0.289063 380.692 0.289063 340.375L0.289063 101.375Z" fill="black"/>
<path d="M0 101.742C0 61.4254 32.6832 28.7422 73 28.7422L232 28.7422V101.742L0 101.742Z" fill="black"/>
<path d="M142 256.742L79 219.742L142 183.742H287V256.742H142Z" fill="black"/>
<circle cx="79" cy="219.742" r="5" fill="black"/>
<circle cx="124.5" cy="220.242" r="2.5" fill="#D1D0D0"/>
<path d="M158.57 29.0156C198.887 29.0156 231.57 61.6988 231.57 102.016V341.016C231.57 381.332 198.887 414.016 158.57 414.016V29.0156Z" fill="black"/>
<path d="M515 28.7422H588V340.742C588 381.059 555.317 413.742 515 413.742V28.7422Z" fill="black"/>
<path d="M588.219 233.125L532.999 185.378L645.544 55.2206C671.915 24.7238 718.015 21.3785 748.511 47.7487L588.219 233.125Z" fill="black"/>
<path d="M543 248.188L593.78 195.744L711.855 310.073L661.075 362.517L543 248.188Z" fill="black"/>
<path d="M819 232.742C819 192.425 851.683 159.742 892 159.742V413.742C851.683 413.742 819 381.059 819 340.742V232.742Z" fill="black"/>
<path d="M419 232.742C419 192.425 451.683 159.742 492 159.742V340.742C492 381.059 459.317 413.742 419 413.742V232.742Z" fill="black"/>
<path d="M256 183.742H329V413.742C288.683 413.742 256 381.059 256 340.742V183.742Z" fill="black"/>
<path d="M890 286.742C890 356.882 833.14 413.742 763 413.742C692.86 413.742 636 356.882 636 286.742C636 216.602 692.86 159.742 763 159.742C833.14 159.742 890 216.602 890 286.742ZM707.947 286.742C707.947 317.147 732.595 341.795 763 341.795C793.405 341.795 818.053 317.147 818.053 286.742C818.053 256.337 793.405 231.689 763 231.689C732.595 231.689 707.947 256.337 707.947 286.742Z" fill="black"/>
<path d="M478.177 214.104C466.475 197.322 450.892 183.615 432.754 174.15C414.616 164.685 394.46 159.742 374 159.742C353.541 159.742 333.385 164.685 315.247 174.15C297.109 183.615 281.526 197.321 269.824 214.104L328.841 255.254C333.913 247.979 340.669 242.038 348.531 237.935C356.394 233.832 365.131 231.689 374 231.689C382.869 231.689 391.607 233.832 399.469 237.935C407.332 242.038 414.087 247.98 419.159 255.255L478.177 214.104Z" fill="black"/>
<path d="M90 220.242L125 220.242" stroke="#D1D0D0"/>
</svg>
