<svg width="374" height="1080" viewBox="0 0 374 1080" fill="none" xmlns="http://www.w3.org/2000/svg">
<g clip-path="url(#clip0_2362_714)">
<rect width="374" height="1080" fill="black"/>
<path d="M0 0H53V154.5C53 169.136 41.1355 181 26.5 181V181C11.8645 181 0 169.136 0 154.5V0Z" fill="#567A92"/>
<path d="M53 0H106V73.5C106 88.1355 94.1355 100 79.5 100V100C64.8645 100 53 88.1355 53 73.5V0Z" fill="#53758C"/>
<path d="M106 0H159V199.5C159 214.136 147.136 226 132.5 226V226C117.864 226 106 214.136 106 199.5V0Z" fill="#567A92"/>
<path d="M265.633 1080L212.633 1080.15L212.076 880.649C212.035 866.013 223.866 854.116 238.502 854.075V854.075C253.137 854.034 265.035 865.865 265.076 880.501L265.633 1080Z" fill="#567A92"/>
<path d="M159 0H212V123.5C212 138.136 200.136 150 185.5 150V150C170.864 150 159 138.136 159 123.5V0Z" fill="#53758C"/>
<path d="M212 0H265V244.5C265 259.136 253.136 271 238.5 271V271C223.864 271 212 259.136 212 244.5V0Z" fill="#567A92"/>
<circle cx="291.5" cy="228.5" r="13.5" fill="#53758C"/>
<circle cx="79.5" cy="138.5" r="13.5" fill="#53758C"/>
<circle cx="26.5" cy="209.5" r="13.5" fill="#567A92"/>
<circle cx="238.5" cy="302.5" r="13.5" fill="#567A92"/>
<path d="M265 0H318V173.5C318 188.136 306.136 200 291.5 200V200C276.864 200 265 188.136 265 173.5V0Z" fill="#53758C"/>
<path d="M318 0H374V288C374 303.464 361.464 316 346 316V316C330.536 316 318 303.464 318 288V0Z" fill="#567A92"/>
<path d="M375.383 1080.34L317.891 1080.51L317.458 928.254C317.413 912.378 330.247 899.471 346.122 899.426V899.426C361.998 899.381 374.905 912.214 374.95 928.09L375.383 1080.34Z" fill="#567A92"/>
<path d="M317.891 1080.51L264.891 1080.66L264.682 1007.16C264.64 992.523 276.471 980.625 291.106 980.584V980.584C305.742 980.542 317.64 992.373 317.682 1007.01L317.891 1080.51Z" fill="#53758C"/>
<path d="M212.891 1080.81L159.891 1080.96L159.54 957.464C159.498 942.828 171.329 930.93 185.964 930.888V930.888C200.6 930.847 212.498 942.678 212.54 957.313L212.891 1080.81Z" fill="#53758C"/>
<path d="M160.773 1080L107.774 1080.15L107.079 835.652C107.037 821.016 118.868 809.118 133.503 809.076V809.076C148.139 809.035 160.037 820.866 160.078 835.501L160.773 1080Z" fill="#567A92"/>
<circle cx="82.7429" cy="851.687" r="13.5" transform="rotate(179.837 82.7429 851.687)" fill="#53758C"/>
<circle cx="290.54" cy="940.538" r="13.5" transform="rotate(179.837 290.54 940.538)" fill="#53758C"/>
<circle cx="345.54" cy="870.538" r="13.5" transform="rotate(179.837 345.54 870.538)" fill="#567A92"/>
<circle cx="372.54" cy="615.538" r="13.5" transform="rotate(179.837 372.54 615.538)" fill="#567A92"/>
<circle cx="-0.4602" cy="435.538" r="13.5" transform="rotate(179.837 -0.4602 435.538)" fill="#567A92"/>
<circle cx="133.54" cy="777.538" r="13.5" transform="rotate(179.837 133.54 777.538)" fill="#567A92"/>
<path d="M108.57 1080L55.5705 1080.15L55.0773 906.651C55.0357 892.016 66.8664 880.118 81.5018 880.076V880.076C96.1373 880.035 108.035 891.865 108.077 906.501L108.57 1080Z" fill="#53758C"/>
<path d="M55.8984 1080L-0.101336 1080.16L-0.920096 792.16C-0.964058 776.696 11.5363 764.125 27.0002 764.081V764.081C42.4641 764.037 55.0357 776.537 55.0797 792.001L55.8984 1080Z" fill="#567A92"/>
<circle cx="377" cy="700" r="50" fill="#53758C"/>
<circle cx="-6" cy="343" r="50" fill="#53758C"/>
</g>
<defs>
<clipPath id="clip0_2362_714">
<rect width="374" height="1080" fill="white"/>
</clipPath>
</defs>
</svg>
